<?xml version="1.0" encoding="UTF-8" standalone="no"?>
<!DOCTYPE svg PUBLIC "-//W3C//DTD SVG 1.1//EN" "http://www.w3.org/Graphics/SVG/1.1/DTD/svg11.dtd">
<svg width="100%" height="100%" viewBox="0 0 512 512" version="1.1" xmlns="http://www.w3.org/2000/svg" xmlns:xlink="http://www.w3.org/1999/xlink" xml:space="preserve" xmlns:serif="http://www.serif.com/" style="fill-rule:evenodd;clip-rule:evenodd;stroke-linejoin:round;stroke-miterlimit:1.41421;">
    <g id="Layer1">
        <g transform="matrix(0.999627,0,0,0.999627,-287.797,-214.511)">
            <path d="M800,726.782L287.809,726.782L287.809,214.591L800,214.591L800,726.782ZM299.814,226.596L299.814,714.778L787.996,714.778L787.996,226.596L299.814,226.596Z" style="fill:rgb(177,229,217);"/>
        </g>
        <g>
            <g>
                <g id="Mountain">
                    <g transform="matrix(1.71429,0,0,1.3727,-45.7143,-44.5022)">
                        <path d="M176,230.569L213.333,300.505L288,300.505L213.333,160.634L176,230.569Z" style="fill:rgb(130,201,185);"/>
                    </g>
                    <path d="M463.882,376.5L315.451,376.5L192,191.324L79.882,359.5L148.333,359.5L159.667,376.5L48.118,376.5L192,160.676L256,256.676L320,160.676L463.882,376.5ZM266.216,272L324.549,359.5L432.118,359.5L320,191.324C302.072,218.216 284.144,245.108 266.216,272Z" style="fill:rgb(177,229,217);"/>
                </g>
                <g id="Point" transform="matrix(1,0,0,1,-0.0864955,-1)">
                    <g transform="matrix(1.64343,0,0,-1.31596,-33.1575,371.389)">
                        <path d="M176,230.569L138.667,160.634L213.333,160.634L176,230.569Z" style="fill:rgb(241,96,62);"/>
                    </g>
                    <g transform="matrix(-1.64343,0,0,-1.31596,545.331,371.389)">
                        <path d="M176,230.569L176,160.634L213.333,160.634L176,230.569Z" style="fill:rgb(217,71,38);"/>
                    </g>
                </g>
            </g>
            <g id="MapTop" transform="matrix(1,0,0,1,-165.983,31.9974)">
                <path d="M219.327,434.5L231.615,362.116L250.239,362.116L264.735,400.708L279.135,362.116L297.759,362.116L310.047,434.5L291.327,434.5L285.087,392.836L267.999,434.5L260.511,434.5L244.287,392.836L238.047,434.5L219.327,434.5Z" style="fill:rgb(177,229,217);fill-rule:nonzero;"/>
                <path d="M333.855,409.732C333.855,411.332 334.143,412.82 334.719,414.196C335.295,415.572 336.079,416.772 337.071,417.796C338.063,418.82 339.247,419.62 340.623,420.196C341.999,420.772 343.487,421.06 345.087,421.06C346.623,421.06 348.079,420.772 349.455,420.196C350.831,419.62 352.015,418.82 353.007,417.796C353.999,416.772 354.799,415.588 355.407,414.244C356.015,412.9 356.319,411.46 356.319,409.924C356.319,408.388 356.015,406.932 355.407,405.556C354.799,404.18 353.999,402.98 353.007,401.956C352.015,400.932 350.831,400.132 349.455,399.556C348.079,398.98 346.623,398.692 345.087,398.692C343.487,398.692 341.999,398.98 340.623,399.556C339.247,400.132 338.063,400.932 337.071,401.956C336.079,402.98 335.295,404.148 334.719,405.46C334.143,406.772 333.855,408.196 333.855,409.732ZM355.743,385.252L373.215,385.252L373.215,434.5L355.743,434.5L355.743,429.028C352.031,433.7 347.007,436.036 340.671,436.036C337.087,436.036 333.791,435.38 330.783,434.068C327.775,432.756 325.151,430.916 322.911,428.548C320.671,426.18 318.927,423.396 317.679,420.196C316.431,416.996 315.807,413.508 315.807,409.732C315.807,406.212 316.415,402.868 317.631,399.7C318.847,396.532 320.543,393.764 322.719,391.396C324.895,389.028 327.487,387.156 330.495,385.78C333.503,384.404 336.831,383.716 340.479,383.716C346.623,383.716 351.711,385.86 355.743,390.148L355.743,385.252Z" style="fill:rgb(177,229,217);fill-rule:nonzero;"/>
                <path d="M424.287,410.02C424.287,408.484 424.015,407.028 423.471,405.652C422.927,404.276 422.143,403.076 421.119,402.052C420.095,401.028 418.895,400.212 417.519,399.604C416.143,398.996 414.655,398.692 413.055,398.692C411.519,398.692 410.079,398.98 408.735,399.556C407.391,400.132 406.223,400.932 405.231,401.956C404.239,402.98 403.439,404.18 402.831,405.556C402.223,406.932 401.919,408.388 401.919,409.924C401.919,411.46 402.207,412.9 402.783,414.244C403.359,415.588 404.159,416.756 405.183,417.748C406.207,418.74 407.407,419.54 408.783,420.148C410.159,420.756 411.615,421.06 413.151,421.06C414.687,421.06 416.127,420.772 417.471,420.196C418.815,419.62 419.983,418.82 420.975,417.796C421.967,416.772 422.767,415.588 423.375,414.244C423.983,412.9 424.287,411.492 424.287,410.02ZM402.399,459.076L385.023,459.076L385.023,385.252L402.399,385.252L402.399,390.724C406.111,386.052 411.167,383.716 417.567,383.716C421.087,383.716 424.367,384.404 427.407,385.78C430.447,387.156 433.087,389.028 435.327,391.396C437.567,393.764 439.311,396.548 440.559,399.748C441.807,402.948 442.431,406.372 442.431,410.02C442.431,413.668 441.807,417.06 440.559,420.196C439.311,423.332 437.583,426.084 435.375,428.452C433.167,430.82 430.559,432.676 427.551,434.02C424.543,435.364 421.279,436.036 417.759,436.036C411.615,436.036 406.495,433.924 402.399,429.7L402.399,459.076Z" style="fill:rgb(177,229,217);fill-rule:nonzero;"/>
                <path d="M481.407,378.052L481.407,434.5L462.591,434.5L462.591,378.052L447.135,378.052L447.135,362.116L496.863,362.116L496.863,378.052L481.407,378.052Z" style="fill:rgb(177,229,217);fill-rule:nonzero;"/>
                <path d="M516.447,409.636C516.447,411.3 516.751,412.82 517.359,414.196C517.967,415.572 518.767,416.772 519.759,417.796C520.751,418.82 521.935,419.62 523.311,420.196C524.687,420.772 526.143,421.06 527.679,421.06C529.215,421.06 530.671,420.772 532.047,420.196C533.423,419.62 534.607,418.82 535.599,417.796C536.591,416.772 537.391,415.572 537.999,414.196C538.607,412.82 538.911,411.332 538.911,409.732C538.911,408.196 538.607,406.74 537.999,405.364C537.391,403.988 536.591,402.788 535.599,401.764C534.607,400.74 533.423,399.94 532.047,399.364C530.671,398.788 529.215,398.5 527.679,398.5C526.143,398.5 524.687,398.788 523.311,399.364C521.935,399.94 520.751,400.74 519.759,401.764C518.767,402.788 517.967,403.972 517.359,405.316C516.751,406.66 516.447,408.1 516.447,409.636ZM498.111,409.444C498.111,405.796 498.847,402.388 500.319,399.22C501.791,396.052 503.839,393.3 506.463,390.964C509.087,388.628 512.207,386.788 515.823,385.444C519.439,384.1 523.391,383.428 527.679,383.428C531.903,383.428 535.823,384.084 539.439,385.396C543.055,386.708 546.191,388.532 548.847,390.868C551.503,393.204 553.567,395.988 555.039,399.22C556.511,402.452 557.247,406.02 557.247,409.924C557.247,413.828 556.495,417.396 554.991,420.628C553.487,423.86 551.423,426.644 548.799,428.98C546.175,431.316 543.023,433.124 539.343,434.404C535.663,435.684 531.679,436.324 527.391,436.324C523.167,436.324 519.263,435.684 515.679,434.404C512.095,433.124 509.007,431.3 506.415,428.932C503.823,426.564 501.791,423.732 500.319,420.436C498.847,417.14 498.111,413.476 498.111,409.444Z" style="fill:rgb(177,229,217);fill-rule:nonzero;"/>
                <path d="M606.495,410.02C606.495,408.484 606.223,407.028 605.679,405.652C605.135,404.276 604.351,403.076 603.327,402.052C602.303,401.028 601.103,400.212 599.727,399.604C598.351,398.996 596.863,398.692 595.263,398.692C593.727,398.692 592.287,398.98 590.943,399.556C589.599,400.132 588.431,400.932 587.439,401.956C586.447,402.98 585.647,404.18 585.039,405.556C584.431,406.932 584.127,408.388 584.127,409.924C584.127,411.46 584.415,412.9 584.991,414.244C585.567,415.588 586.367,416.756 587.391,417.748C588.415,418.74 589.615,419.54 590.991,420.148C592.367,420.756 593.823,421.06 595.359,421.06C596.895,421.06 598.335,420.772 599.679,420.196C601.023,419.62 602.191,418.82 603.183,417.796C604.175,416.772 604.975,415.588 605.583,414.244C606.191,412.9 606.495,411.492 606.495,410.02ZM584.607,459.076L567.231,459.076L567.231,385.252L584.607,385.252L584.607,390.724C588.319,386.052 593.375,383.716 599.775,383.716C603.295,383.716 606.575,384.404 609.615,385.78C612.655,387.156 615.295,389.028 617.535,391.396C619.775,393.764 621.519,396.548 622.767,399.748C624.015,402.948 624.639,406.372 624.639,410.02C624.639,413.668 624.015,417.06 622.767,420.196C621.519,423.332 619.791,426.084 617.583,428.452C615.375,430.82 612.767,432.676 609.759,434.02C606.751,435.364 603.487,436.036 599.967,436.036C593.823,436.036 588.703,433.924 584.607,429.7L584.607,459.076Z" style="fill:rgb(177,229,217);fill-rule:nonzero;"/>
            </g>
        </g>
    </g>
</svg>
