<svg xmlns="http://www.w3.org/2000/svg" fill-rule="evenodd" stroke-miterlimit="1.4142" viewBox="0 0 512 512" clip-rule="evenodd" stroke-linejoin="round">
  <path fill="#b1e5d9" d="M511.905 512h-512V0h512v512zm-500-500v488h488V12h-488z"/>
  <path fill="#b1e5d9" fill-rule="nonzero" d="M119.875 382.347l36.851-217.071h55.851l43.472 115.733 43.183-115.733h55.852l36.85 217.071h-56.139l-18.713-124.945-51.245 124.945h-22.456l-48.654-124.945-18.713 124.945h-56.139z"/>
  <path fill="#f1603e" d="M256.045 48.309l42.673 114.968h-85.346l42.673-114.968z"/>
  <path fill="#b1e5d9" fill-rule="nonzero" d="M104.113 476.544l9.213-54.268h13.963l10.867 28.934 10.796-28.934h13.963l9.213 54.268h-14.035l-4.678-31.236-12.811 31.236h-5.614l-12.164-31.236-4.678 31.236h-14.035zm85.864-18.569c0 1.2.216 2.315.648 3.347.432 1.031 1.02 1.931 1.763 2.699.744.768 1.632 1.367 2.663 1.799 1.032.432 2.147.648 3.347.648 1.152 0 2.243-.216 3.275-.648 1.031-.432 1.919-1.031 2.663-1.799.744-.768 1.343-1.656 1.799-2.663.456-1.008.684-2.087.684-3.239 0-1.152-.228-2.243-.684-3.275-.456-1.031-1.055-1.931-1.799-2.699-.744-.767-1.632-1.367-2.663-1.799-1.032-.432-2.123-.648-3.275-.648-1.2 0-2.315.216-3.347.648-1.031.432-1.919 1.032-2.663 1.799-.743.768-1.331 1.644-1.763 2.627-.432.984-.648 2.052-.648 3.203zm16.41-18.353h13.099v36.922h-13.099v-4.102c-2.783 3.502-6.55 5.254-11.3 5.254-2.687 0-5.158-.492-7.413-1.476-2.255-.983-4.222-2.363-5.902-4.138-1.679-1.775-2.987-3.863-3.922-6.262-.936-2.399-1.404-5.014-1.404-7.845 0-2.639.456-5.146 1.368-7.521.911-2.375 2.183-4.45 3.814-6.226 1.632-1.775 3.575-3.179 5.83-4.21 2.255-1.032 4.75-1.548 7.485-1.548 4.607 0 8.421 1.608 11.444 4.823v-3.671zm51.389 18.569c0-1.152-.204-2.243-.612-3.275-.408-1.031-.996-1.931-1.763-2.699-.768-.767-1.668-1.379-2.699-1.835-1.032-.456-2.147-.684-3.347-.684-1.152 0-2.231.216-3.239.648-1.007.432-1.883 1.032-2.627 1.799-.744.768-1.343 1.668-1.799 2.699-.456 1.032-.684 2.123-.684 3.275 0 1.152.216 2.231.648 3.239.432 1.007 1.031 1.883 1.799 2.627.768.744 1.668 1.343 2.699 1.799 1.032.456 2.123.684 3.275.684 1.152 0 2.231-.216 3.239-.648 1.007-.432 1.883-1.031 2.627-1.799.744-.768 1.343-1.656 1.799-2.663.456-1.008.684-2.063.684-3.167zm-16.41 36.778h-13.027v-55.347h13.027v4.102c2.783-3.502 6.574-5.254 11.372-5.254 2.639 0 5.098.516 7.377 1.548 2.279 1.031 4.258 2.435 5.938 4.21 1.679 1.776 2.987 3.863 3.922 6.262.936 2.399 1.404 4.966 1.404 7.701 0 2.735-.468 5.278-1.404 7.629-.935 2.351-2.231 4.415-3.886 6.19-1.656 1.775-3.611 3.167-5.866 4.174-2.255 1.008-4.702 1.512-7.341 1.512-4.607 0-8.445-1.584-11.516-4.75v22.023zm59.234-60.745v42.32h-14.107v-42.32h-11.588v-11.948h37.283v11.948H300.6zm26.27 23.679c0 1.248.228 2.387.684 3.419.456 1.031 1.055 1.931 1.799 2.699.744.768 1.632 1.367 2.663 1.799 1.032.432 2.123.648 3.275.648 1.152 0 2.243-.216 3.275-.648 1.031-.432 1.919-1.031 2.663-1.799.743-.768 1.343-1.668 1.799-2.699.456-1.032.684-2.147.684-3.347 0-1.151-.228-2.243-.684-3.275-.456-1.031-1.056-1.931-1.799-2.699-.744-.767-1.632-1.367-2.663-1.799-1.032-.432-2.123-.648-3.275-.648-1.152 0-2.243.216-3.275.648-1.031.432-1.919 1.032-2.663 1.799-.744.768-1.343 1.656-1.799 2.663-.456 1.008-.684 2.088-.684 3.239zm-13.747-.144c0-2.735.552-5.29 1.656-7.665 1.103-2.375 2.639-4.438 4.606-6.19 1.967-1.751 4.306-3.13 7.017-4.138 2.711-1.008 5.674-1.512 8.889-1.512 3.167 0 6.106.492 8.817 1.476 2.711.984 5.062 2.351 7.053 4.102 1.991 1.752 3.539 3.839 4.642 6.262 1.104 2.423 1.656 5.098 1.656 8.025 0 2.927-.564 5.602-1.692 8.025-1.127 2.423-2.675 4.51-4.642 6.262-1.967 1.751-4.33 3.107-7.089 4.066-2.759.96-5.746 1.44-8.961 1.44-3.167 0-6.094-.48-8.781-1.44-2.687-.959-5.002-2.327-6.945-4.102-1.943-1.776-3.467-3.899-4.57-6.37-1.104-2.471-1.656-5.218-1.656-8.241zm81.258.432c0-1.152-.204-2.243-.612-3.275-.408-1.031-.995-1.931-1.763-2.699-.768-.767-1.668-1.379-2.699-1.835-1.032-.456-2.147-.684-3.347-.684-1.151 0-2.231.216-3.239.648-1.007.432-1.883 1.032-2.627 1.799-.743.768-1.343 1.668-1.799 2.699-.456 1.032-.684 2.123-.684 3.275 0 1.152.216 2.231.648 3.239.432 1.007 1.032 1.883 1.799 2.627.768.744 1.668 1.343 2.699 1.799 1.032.456 2.123.684 3.275.684 1.152 0 2.231-.216 3.239-.648 1.007-.432 1.883-1.031 2.627-1.799.744-.768 1.343-1.656 1.799-2.663.456-1.008.684-2.063.684-3.167zm-16.41 36.778h-13.027v-55.347h13.027v4.102c2.783-3.502 6.574-5.254 11.372-5.254 2.639 0 5.098.516 7.377 1.548 2.279 1.031 4.258 2.435 5.938 4.21 1.679 1.776 2.987 3.863 3.922 6.262.936 2.399 1.404 4.966 1.404 7.701 0 2.735-.468 5.278-1.404 7.629-.935 2.351-2.231 4.415-3.886 6.19-1.656 1.775-3.611 3.167-5.866 4.174-2.255 1.008-4.702 1.512-7.341 1.512-4.607 0-8.445-1.584-11.516-4.75v22.023z"/>
</svg>
