<svg viewBox="0 0 512 512" xmlns="http://www.w3.org/2000/svg" fill-rule="evenodd" clip-rule="evenodd" stroke-linejoin="round" stroke-miterlimit="1.41421">
  <path d="M511.9046 511.99991031H-.09535276V-.00004244H511.9046V511.9999103zM11.90516938 12.0004797v487.99990812h487.99990811V12.00047969H11.90516938z" fill="#b1e5d9"/>
  <path d="M256.00074 271.9998663l63.99958857 96.0011472H448.00122L320.00032857 176.0000918 256.00074 271.9998663z" fill="#82c9b9"/>
  <path d="M463.882 376.5H315.451L192 191.324 79.882 359.5h68.451l11.334 17H48.118L192 160.676l64 96 64-96L463.882 376.5zM266.216 272l58.333 87.5h107.569L320 191.324 266.216 272z" fill="#b1e5d9"/>
  <path d="M255.9996845 66.96941876l-61.35417219 92.0316626h122.70834438l-61.35417219-92.0316626z" fill="#f1603e"/>
  <path d="M256.0008245 66.96941876v92.0316626h-61.35417219l61.35417219-92.0316626z" fill="#d94726"/>
  <path d="M53.344 466.4974l12.288-72.384h18.624l14.496 38.592 14.4-38.592h18.624l12.288 72.384h-18.72l-6.24-41.664-17.088 41.664h-7.488l-16.224-41.664-6.24 41.664h-18.72zm114.528-24.768c0 1.6.288 3.088.864 4.464.576 1.376 1.36 2.576 2.352 3.6.992 1.024 2.176 1.824 3.552 2.4 1.376.576 2.864.864 4.464.864 1.536 0 2.992-.288 4.368-.864 1.376-.576 2.56-1.376 3.552-2.4s1.792-2.208 2.4-3.552c.608-1.344.912-2.784.912-4.32 0-1.536-.304-2.992-.912-4.368-.608-1.376-1.408-2.576-2.4-3.6s-2.176-1.824-3.552-2.4c-1.376-.576-2.832-.864-4.368-.864-1.6 0-3.088.288-4.464.864-1.376.576-2.56 1.376-3.552 2.4s-1.776 2.192-2.352 3.504c-.576 1.312-.864 2.736-.864 4.272zm21.888-24.48h17.472v49.248H189.76v-5.472c-3.712 4.672-8.736 7.008-15.072 7.008-3.584 0-6.88-.656-9.888-1.968-3.008-1.312-5.632-3.152-7.872-5.52-2.24-2.368-3.984-5.152-5.232-8.352-1.248-3.2-1.872-6.688-1.872-10.464 0-3.52.608-6.864 1.824-10.032 1.216-3.168 2.912-5.936 5.088-8.304 2.176-2.368 4.768-4.24 7.776-5.616 3.008-1.376 6.336-2.064 9.984-2.064 6.144 0 11.232 2.144 15.264 6.432v-4.896zm68.544 24.768c0-1.536-.272-2.992-.816-4.368-.544-1.376-1.328-2.576-2.352-3.6-1.024-1.024-2.224-1.84-3.6-2.448-1.376-.608-2.864-.912-4.464-.912-1.536 0-2.976.288-4.32.864-1.344.576-2.512 1.376-3.504 2.4s-1.792 2.224-2.4 3.6c-.608 1.376-.912 2.832-.912 4.368 0 1.536.288 2.976.864 4.32.576 1.344 1.376 2.512 2.4 3.504s2.224 1.792 3.6 2.4c1.376.608 2.832.912 4.368.912 1.536 0 2.976-.288 4.32-.864 1.344-.576 2.512-1.376 3.504-2.4s1.792-2.208 2.4-3.552c.608-1.344.912-2.752.912-4.224zm-21.888 49.056H219.04v-73.824h17.376v5.472c3.712-4.672 8.768-7.008 15.168-7.008 3.52 0 6.8.688 9.84 2.064 3.04 1.376 5.68 3.248 7.92 5.616 2.24 2.368 3.984 5.152 5.232 8.352 1.248 3.2 1.872 6.624 1.872 10.272 0 3.648-.624 7.04-1.872 10.176-1.248 3.136-2.976 5.888-5.184 8.256-2.208 2.368-4.816 4.224-7.824 5.568-3.008 1.344-6.272 2.016-9.792 2.016-6.144 0-11.264-2.112-15.36-6.336v29.376zm79.008-81.024v56.448h-18.816v-56.448h-15.456v-15.936h49.728v15.936h-15.456zm35.04 31.584c0 1.664.304 3.184.912 4.56.608 1.376 1.408 2.576 2.4 3.6s2.176 1.824 3.552 2.4c1.376.576 2.832.864 4.368.864 1.536 0 2.992-.288 4.368-.864 1.376-.576 2.56-1.376 3.552-2.4s1.792-2.224 2.4-3.6c.608-1.376.912-2.864.912-4.464 0-1.536-.304-2.992-.912-4.368-.608-1.376-1.408-2.576-2.4-3.6s-2.176-1.824-3.552-2.4c-1.376-.576-2.832-.864-4.368-.864-1.536 0-2.992.288-4.368.864-1.376.576-2.56 1.376-3.552 2.4s-1.792 2.208-2.4 3.552c-.608 1.344-.912 2.784-.912 4.32zm-18.336-.192c0-3.648.736-7.056 2.208-10.224 1.472-3.168 3.52-5.92 6.144-8.256 2.624-2.336 5.744-4.176 9.36-5.52 3.616-1.344 7.568-2.016 11.856-2.016 4.224 0 8.144.656 11.76 1.968 3.616 1.312 6.752 3.136 9.408 5.472 2.656 2.336 4.72 5.12 6.192 8.352 1.472 3.232 2.208 6.8 2.208 10.704 0 3.904-.752 7.472-2.256 10.704-1.504 3.232-3.568 6.016-6.192 8.352-2.624 2.336-5.776 4.144-9.456 5.424-3.68 1.28-7.664 1.92-11.952 1.92-4.224 0-8.128-.64-11.712-1.92-3.584-1.28-6.672-3.104-9.264-5.472-2.592-2.368-4.624-5.2-6.096-8.496-1.472-3.296-2.208-6.96-2.208-10.992zm108.384.576c0-1.536-.272-2.992-.816-4.368-.544-1.376-1.328-2.576-2.352-3.6-1.024-1.024-2.224-1.84-3.6-2.448-1.376-.608-2.864-.912-4.464-.912-1.536 0-2.976.288-4.32.864-1.344.576-2.512 1.376-3.504 2.4s-1.792 2.224-2.4 3.6c-.608 1.376-.912 2.832-.912 4.368 0 1.536.288 2.976.864 4.32.576 1.344 1.376 2.512 2.4 3.504s2.224 1.792 3.6 2.4c1.376.608 2.832.912 4.368.912 1.536 0 2.976-.288 4.32-.864 1.344-.576 2.512-1.376 3.504-2.4s1.792-2.208 2.4-3.552c.608-1.344.912-2.752.912-4.224zm-21.888 49.056h-17.376v-73.824h17.376v5.472c3.712-4.672 8.768-7.008 15.168-7.008 3.52 0 6.8.688 9.84 2.064 3.04 1.376 5.68 3.248 7.92 5.616 2.24 2.368 3.984 5.152 5.232 8.352 1.248 3.2 1.872 6.624 1.872 10.272 0 3.648-.624 7.04-1.872 10.176-1.248 3.136-2.976 5.888-5.184 8.256-2.208 2.368-4.816 4.224-7.824 5.568-3.008 1.344-6.272 2.016-9.792 2.016-6.144 0-11.264-2.112-15.36-6.336v29.376z" fill="#b1e5d9" fill-rule="nonzero"/>
</svg>
