<?xml version="1.0" encoding="UTF-8" standalone="no"?><!DOCTYPE svg PUBLIC "-//W3C//DTD SVG 1.1//EN" "http://www.w3.org/Graphics/SVG/1.1/DTD/svg11.dtd"><svg width="100%" height="100%" viewBox="0 0 513 513" version="1.1" xmlns="http://www.w3.org/2000/svg" xmlns:xlink="http://www.w3.org/1999/xlink" xml:space="preserve" style="fill-rule:evenodd;clip-rule:evenodd;stroke-linejoin:round;stroke-miterlimit:1.41421;"><g><path d="M512.191,512.191l-512.191,0l0,-512.191l512.191,0l0,512.191Zm-500.191,-500.191l0,488.191l488.191,0l0,-488.191l-488.191,0Z" style="fill:#b1e5d9;"/><g><path d="M120.015,382.49l36.864,-217.152l55.872,0l43.488,115.776l43.2,-115.776l55.872,0l36.864,217.152l-56.16,0l-18.72,-124.992l-51.264,124.992l-22.464,0l-48.672,-124.992l-18.72,124.992l-56.16,0Z" style="fill:#b1e5d9;fill-rule:nonzero;"/><path d="M256.236,48.327l42.689,115.011l-85.378,0l42.689,-115.011Z" style="fill:#f1603e;"/></g><g><path d="M74.239,475.25l9.216,-54.288l13.968,0l10.872,28.944l10.8,-28.944l13.968,0l9.216,54.288l-14.04,0l-4.68,-31.248l-12.816,31.248l-5.616,0l-12.168,-31.248l-4.68,31.248l-14.04,0Z" style="fill:#b1e5d9;fill-rule:nonzero;"/><path d="M160.135,456.674c0,1.2 0.216,2.316 0.648,3.348c0.432,1.032 1.02,1.932 1.764,2.7c0.744,0.768 1.632,1.368 2.664,1.8c1.032,0.432 2.148,0.648 3.348,0.648c1.152,0 2.244,-0.216 3.276,-0.648c1.032,-0.432 1.92,-1.032 2.664,-1.8c0.744,-0.768 1.344,-1.656 1.8,-2.664c0.456,-1.008 0.684,-2.088 0.684,-3.24c0,-1.152 -0.228,-2.244 -0.684,-3.276c-0.456,-1.032 -1.056,-1.932 -1.8,-2.7c-0.744,-0.768 -1.632,-1.368 -2.664,-1.8c-1.032,-0.432 -2.124,-0.648 -3.276,-0.648c-1.2,0 -2.316,0.216 -3.348,0.648c-1.032,0.432 -1.92,1.032 -2.664,1.8c-0.744,0.768 -1.332,1.644 -1.764,2.628c-0.432,0.984 -0.648,2.052 -0.648,3.204Zm16.416,-18.36l13.104,0l0,36.936l-13.104,0l0,-4.104c-2.784,3.504 -6.552,5.256 -11.304,5.256c-2.688,0 -5.16,-0.492 -7.416,-1.476c-2.256,-0.984 -4.224,-2.364 -5.904,-4.14c-1.68,-1.776 -2.988,-3.864 -3.924,-6.264c-0.936,-2.4 -1.404,-5.016 -1.404,-7.848c0,-2.64 0.456,-5.148 1.368,-7.524c0.912,-2.376 2.184,-4.452 3.816,-6.228c1.632,-1.776 3.576,-3.18 5.832,-4.212c2.256,-1.032 4.752,-1.548 7.488,-1.548c4.608,0 8.424,1.608 11.448,4.824l0,-3.672Z" style="fill:#b1e5d9;fill-rule:nonzero;"/><path d="M227.959,456.89c0,-1.152 -0.204,-2.244 -0.612,-3.276c-0.408,-1.032 -0.996,-1.932 -1.764,-2.7c-0.768,-0.768 -1.668,-1.38 -2.7,-1.836c-1.032,-0.456 -2.148,-0.684 -3.348,-0.684c-1.152,0 -2.232,0.216 -3.24,0.648c-1.008,0.432 -1.884,1.032 -2.628,1.8c-0.744,0.768 -1.344,1.668 -1.8,2.7c-0.456,1.032 -0.684,2.124 -0.684,3.276c0,1.152 0.216,2.232 0.648,3.24c0.432,1.008 1.032,1.884 1.8,2.628c0.768,0.744 1.668,1.344 2.7,1.8c1.032,0.456 2.124,0.684 3.276,0.684c1.152,0 2.232,-0.216 3.24,-0.648c1.008,-0.432 1.884,-1.032 2.628,-1.8c0.744,-0.768 1.344,-1.656 1.8,-2.664c0.456,-1.008 0.684,-2.064 0.684,-3.168Zm-16.416,36.792l-13.032,0l0,-55.368l13.032,0l0,4.104c2.784,-3.504 6.576,-5.256 11.376,-5.256c2.64,0 5.1,0.516 7.38,1.548c2.28,1.032 4.26,2.436 5.94,4.212c1.68,1.776 2.988,3.864 3.924,6.264c0.936,2.4 1.404,4.968 1.404,7.704c0,2.736 -0.468,5.28 -1.404,7.632c-0.936,2.352 -2.232,4.416 -3.888,6.192c-1.656,1.776 -3.612,3.168 -5.868,4.176c-2.256,1.008 -4.704,1.512 -7.344,1.512c-4.608,0 -8.448,-1.584 -11.52,-4.752l0,22.032Z" style="fill:#b1e5d9;fill-rule:nonzero;"/><path d="M280.015,434.858c-1.536,-1.248 -3.072,-2.172 -4.608,-2.772c-1.536,-0.6 -3.024,-0.9 -4.464,-0.9c-1.824,0 -3.312,0.432 -4.464,1.296c-1.152,0.864 -1.728,1.992 -1.728,3.384c0,0.96 0.288,1.752 0.864,2.376c0.576,0.624 1.332,1.164 2.268,1.62c0.936,0.456 1.992,0.852 3.168,1.188c1.176,0.336 2.34,0.696 3.492,1.08c4.608,1.536 7.98,3.588 10.116,6.156c2.136,2.568 3.204,5.916 3.204,10.044c0,2.784 -0.468,5.304 -1.404,7.56c-0.936,2.256 -2.304,4.188 -4.104,5.796c-1.8,1.608 -4.008,2.856 -6.624,3.744c-2.616,0.888 -5.58,1.332 -8.892,1.332c-6.864,0 -13.224,-2.04 -19.08,-6.12l6.048,-11.376c2.112,1.872 4.2,3.264 6.264,4.176c2.064,0.912 4.104,1.368 6.12,1.368c2.304,0 4.02,-0.528 5.148,-1.584c1.128,-1.056 1.692,-2.256 1.692,-3.6c0,-0.816 -0.144,-1.524 -0.432,-2.124c-0.288,-0.6 -0.768,-1.152 -1.44,-1.656c-0.672,-0.504 -1.548,-0.972 -2.628,-1.404c-1.08,-0.432 -2.388,-0.912 -3.924,-1.44c-1.824,-0.576 -3.612,-1.212 -5.364,-1.908c-1.752,-0.696 -3.312,-1.62 -4.68,-2.772c-1.368,-1.152 -2.472,-2.604 -3.312,-4.356c-0.84,-1.752 -1.26,-3.972 -1.26,-6.66c0,-2.688 0.444,-5.124 1.332,-7.308c0.888,-2.184 2.136,-4.056 3.744,-5.616c1.608,-1.56 3.576,-2.772 5.904,-3.636c2.328,-0.864 4.932,-1.296 7.812,-1.296c2.688,0 5.496,0.372 8.424,1.116c2.928,0.744 5.736,1.836 8.424,3.276l-5.616,11.016Z" style="fill:#b1e5d9;fill-rule:nonzero;"/><path d="M295.495,415.49l13.032,0l0,27.504c1.776,-2.16 3.576,-3.612 5.4,-4.356c1.824,-0.744 3.96,-1.116 6.408,-1.116c4.656,0 8.172,1.284 10.548,3.852c2.376,2.568 3.564,6.036 3.564,10.404l0,23.472l-13.032,0l0,-18.648c0,-1.872 -0.144,-3.384 -0.432,-4.536c-0.288,-1.152 -0.768,-2.04 -1.44,-2.664c-1.152,-1.008 -2.544,-1.512 -4.176,-1.512c-2.208,0 -3.9,0.66 -5.076,1.98c-1.176,1.32 -1.764,3.204 -1.764,5.652l0,19.728l-13.032,0l0,-59.76Z" style="fill:#b1e5d9;fill-rule:nonzero;"/><path d="M355.615,456.602c0,1.248 0.228,2.388 0.684,3.42c0.456,1.032 1.056,1.932 1.8,2.7c0.744,0.768 1.632,1.368 2.664,1.8c1.032,0.432 2.124,0.648 3.276,0.648c1.152,0 2.244,-0.216 3.276,-0.648c1.032,-0.432 1.92,-1.032 2.664,-1.8c0.744,-0.768 1.344,-1.668 1.8,-2.7c0.456,-1.032 0.684,-2.148 0.684,-3.348c0,-1.152 -0.228,-2.244 -0.684,-3.276c-0.456,-1.032 -1.056,-1.932 -1.8,-2.7c-0.744,-0.768 -1.632,-1.368 -2.664,-1.8c-1.032,-0.432 -2.124,-0.648 -3.276,-0.648c-1.152,0 -2.244,0.216 -3.276,0.648c-1.032,0.432 -1.92,1.032 -2.664,1.8c-0.744,0.768 -1.344,1.656 -1.8,2.664c-0.456,1.008 -0.684,2.088 -0.684,3.24Zm-13.752,-0.144c0,-2.736 0.552,-5.292 1.656,-7.668c1.104,-2.376 2.64,-4.44 4.608,-6.192c1.968,-1.752 4.308,-3.132 7.02,-4.14c2.712,-1.008 5.676,-1.512 8.892,-1.512c3.168,0 6.108,0.492 8.82,1.476c2.712,0.984 5.064,2.352 7.056,4.104c1.992,1.752 3.54,3.84 4.644,6.264c1.104,2.424 1.656,5.1 1.656,8.028c0,2.928 -0.564,5.604 -1.692,8.028c-1.128,2.424 -2.676,4.512 -4.644,6.264c-1.968,1.752 -4.332,3.108 -7.092,4.068c-2.76,0.96 -5.748,1.44 -8.964,1.44c-3.168,0 -6.096,-0.48 -8.784,-1.44c-2.688,-0.96 -5.004,-2.328 -6.948,-4.104c-1.944,-1.776 -3.468,-3.9 -4.572,-6.372c-1.104,-2.472 -1.656,-5.22 -1.656,-8.244Z" style="fill:#b1e5d9;fill-rule:nonzero;"/><path d="M423.151,456.89c0,-1.152 -0.204,-2.244 -0.612,-3.276c-0.408,-1.032 -0.996,-1.932 -1.764,-2.7c-0.768,-0.768 -1.668,-1.38 -2.7,-1.836c-1.032,-0.456 -2.148,-0.684 -3.348,-0.684c-1.152,0 -2.232,0.216 -3.24,0.648c-1.008,0.432 -1.884,1.032 -2.628,1.8c-0.744,0.768 -1.344,1.668 -1.8,2.7c-0.456,1.032 -0.684,2.124 -0.684,3.276c0,1.152 0.216,2.232 0.648,3.24c0.432,1.008 1.032,1.884 1.8,2.628c0.768,0.744 1.668,1.344 2.7,1.8c1.032,0.456 2.124,0.684 3.276,0.684c1.152,0 2.232,-0.216 3.24,-0.648c1.008,-0.432 1.884,-1.032 2.628,-1.8c0.744,-0.768 1.344,-1.656 1.8,-2.664c0.456,-1.008 0.684,-2.064 0.684,-3.168Zm-16.416,36.792l-13.032,0l0,-55.368l13.032,0l0,4.104c2.784,-3.504 6.576,-5.256 11.376,-5.256c2.64,0 5.1,0.516 7.38,1.548c2.28,1.032 4.26,2.436 5.94,4.212c1.68,1.776 2.988,3.864 3.924,6.264c0.936,2.4 1.404,4.968 1.404,7.704c0,2.736 -0.468,5.28 -1.404,7.632c-0.936,2.352 -2.232,4.416 -3.888,6.192c-1.656,1.776 -3.612,3.168 -5.868,4.176c-2.256,1.008 -4.704,1.512 -7.344,1.512c-4.608,0 -8.448,-1.584 -11.52,-4.752l0,22.032Z" style="fill:#b1e5d9;fill-rule:nonzero;"/></g></g></svg>