<?xml version="1.0" standalone="no"?>
<!DOCTYPE svg PUBLIC "-//W3C//DTD SVG 20010904//EN"
 "http://www.w3.org/TR/2001/REC-SVG-20010904/DTD/svg10.dtd">
<svg version="1.0" xmlns="http://www.w3.org/2000/svg"
 width="700.000000pt" height="700.000000pt" viewBox="0 0 700.000000 700.000000"
 preserveAspectRatio="xMidYMid meet">
<metadata>
Created by potrace 1.11, written by Peter Selinger 2001-2013
</metadata>
<g transform="translate(0.000000,700.000000) scale(0.100000,-0.100000)"
fill="#000000" stroke="none">
<path d="M0 3500 l0 -3500 3499 0 3500 0 -1 3500 0 3500 -3499 0 -3499 0 0
-3500z m6830 3329 c4 -6 5 -6641 1 -6659 0 -3 -1500 -5 -3331 -5 -2956 0
-3331 2 -3334 15 -4 14 -1 6655 2 6655 43 5 6659 -1 6662 -6z"/>
<path d="M3497 6323 c-6 -10 -207 -548 -297 -793 -21 -58 -93 -251 -159 -429
-66 -179 -119 -327 -116 -329 5 -5 1146 -4 1151 1 4 3 -8 37 -85 247 -16 41
-67 181 -115 310 -47 129 -90 244 -95 255 -8 17 -57 149 -269 724 -5 14 -12
20 -15 14z"/>
<path d="M2135 4698 c-4 -24 -9 -56 -11 -73 -2 -16 -6 -41 -9 -55 -3 -14 -7
-38 -10 -55 -3 -16 -7 -39 -9 -50 -2 -11 -7 -40 -11 -65 -4 -25 -9 -54 -11
-65 -9 -47 -14 -74 -19 -109 -2 -21 -7 -46 -9 -55 -3 -9 -7 -34 -11 -56 -3
-22 -10 -65 -15 -95 -5 -30 -12 -73 -15 -95 -4 -22 -8 -47 -10 -55 -2 -8 -7
-33 -10 -55 -3 -23 -8 -52 -10 -65 -3 -14 -10 -54 -16 -90 -18 -113 -19 -124
-31 -185 -6 -33 -12 -69 -13 -80 -3 -18 -15 -86 -30 -172 -3 -16 -8 -44 -11
-63 -3 -19 -26 -154 -51 -300 -25 -146 -47 -278 -50 -295 -2 -16 -11 -66 -18
-110 -8 -44 -17 -98 -20 -120 -3 -22 -8 -51 -11 -65 -2 -14 -7 -38 -10 -55 -2
-16 -9 -57 -15 -90 -6 -33 -13 -73 -16 -90 -2 -16 -13 -79 -23 -140 -11 -60
-20 -112 -20 -116 0 -4 172 -6 382 -6 l382 2 8 35 c4 19 10 58 13 85 3 28 10
75 15 105 5 30 12 78 15 105 4 28 8 57 10 65 2 8 7 35 10 60 3 25 12 86 20
135 8 50 16 108 20 130 3 22 10 67 15 100 14 91 22 148 25 170 8 58 32 214 40
265 2 14 12 75 21 135 9 61 17 119 19 130 2 11 6 44 10 74 16 116 15 117 94
-85 41 -104 102 -261 136 -349 34 -88 118 -302 185 -475 119 -306 243 -623
260 -666 8 -21 15 -22 162 -22 l153 0 219 537 c121 295 227 554 237 576 9 22
31 76 49 120 18 44 40 98 50 120 9 22 43 105 75 185 32 80 61 149 65 153 4 4
13 -32 20 -80 6 -48 13 -95 15 -103 1 -8 8 -51 15 -95 12 -83 13 -88 29 -195
6 -36 13 -85 16 -109 3 -23 7 -55 10 -70 4 -24 36 -239 50 -336 3 -22 7 -49
10 -60 2 -11 7 -42 10 -70 4 -27 8 -61 11 -75 2 -14 8 -54 14 -90 5 -36 12
-83 15 -105 4 -22 8 -53 11 -70 2 -16 6 -41 9 -55 2 -14 7 -43 10 -65 2 -22 7
-56 11 -76 l5 -37 383 0 383 0 -3 22 c-1 11 -10 64 -19 116 -9 52 -18 106 -20
120 -2 14 -20 117 -39 230 -19 113 -37 221 -41 240 -3 19 -10 58 -15 85 -5 28
-12 66 -15 85 -3 19 -10 60 -15 90 -5 30 -12 71 -15 90 -3 19 -7 46 -10 60 -3
14 -7 39 -9 55 -13 82 -63 377 -70 415 -3 14 -8 41 -10 60 -3 19 -8 46 -11 60
-2 13 -7 40 -10 60 -3 20 -7 45 -9 57 -8 37 -18 97 -21 123 -2 14 -15 92 -29
174 -29 165 -35 200 -41 236 -2 14 -20 120 -40 235 -20 116 -39 230 -42 254
-3 24 -9 55 -12 70 l-7 26 -383 0 -383 0 -65 -175 c-35 -96 -147 -395 -248
-665 -100 -269 -202 -543 -226 -607 -24 -65 -47 -118 -50 -118 -4 0 -10 12
-14 28 -3 15 -12 41 -20 57 -7 17 -36 93 -65 170 -28 77 -55 149 -60 160 -5
11 -27 72 -50 135 -23 63 -46 124 -50 135 -10 22 -137 357 -180 475 -15 41
-55 150 -90 243 l-63 167 -383 0 -382 0 -7 -42z"/>
<path d="M1550 1225 c0 -1 -5 -27 -10 -56 -6 -30 -13 -70 -16 -89 -3 -19 -17
-100 -30 -180 -14 -80 -27 -156 -29 -170 -2 -14 -11 -67 -20 -119 -18 -108
-18 -103 -16 -116 1 -14 183 -14 187 0 2 6 12 73 24 150 11 77 22 151 25 165
3 13 6 39 7 57 1 18 5 33 8 33 3 0 21 -42 40 -92 19 -51 55 -145 80 -208 l46
-115 38 0 38 0 85 208 c47 114 87 206 89 204 3 -3 5 -14 19 -107 4 -25 9 -52
10 -60 2 -8 6 -37 9 -65 13 -100 25 -168 31 -174 4 -3 47 -6 96 -6 l90 -1 -7
50 c-3 28 -8 60 -10 71 -4 19 -72 417 -78 460 -2 11 -9 52 -16 91 l-13 71 -95
-1 c-85 -1 -96 -3 -103 -21 -14 -35 -56 -147 -94 -250 -20 -55 -40 -103 -44
-107 -4 -4 -22 34 -41 85 -18 50 -51 138 -72 193 l-39 102 -95 -1 c-52 0 -94
-1 -94 -2z"/>
<path d="M3759 1223 c0 -2 0 -30 0 -63 0 -33 0 -69 0 -79 1 -17 9 -19 76 -18
43 1 76 -2 77 -8 0 -5 2 -132 3 -280 1 -149 4 -275 7 -281 4 -5 46 -9 95 -9
l88 0 5 290 5 290 76 -2 76 -1 2 82 2 82 -256 0 c-140 0 -255 -1 -256 -3z"/>
<path d="M2619 1000 c-49 -9 -123 -53 -149 -89 -131 -185 -15 -441 199 -441
45 0 131 34 131 51 0 5 5 9 10 9 6 0 10 -9 10 -19 0 -25 11 -28 100 -27 l75 1
5 205 c3 113 4 226 2 253 l-3 47 -90 0 c-82 0 -89 -1 -89 -20 0 -24 -13 -26
-30 -6 -23 29 -111 47 -171 36z m146 -164 c38 -20 58 -52 58 -97 0 -49 -25
-87 -69 -105 -57 -24 -124 3 -143 58 -19 54 -13 84 23 122 37 40 82 47 131 22z"/>
<path d="M3406 998 c-22 -5 -55 -20 -73 -34 l-33 -25 0 25 c0 26 0 26 -89 26
l-89 0 1 -377 2 -378 88 -2 87 -2 0 149 0 149 36 -24 c119 -81 298 -16 353
129 75 199 -86 406 -283 364z m78 -182 c35 -32 41 -48 36 -91 -7 -60 -61 -105
-120 -98 -103 13 -138 125 -60 196 45 40 97 38 144 -7z"/>
<path d="M4471 987 c-122 -40 -192 -139 -186 -264 8 -166 154 -274 340 -252
159 20 258 121 259 265 1 195 -203 320 -413 251z m180 -157 c32 -23 51 -77 42
-120 -18 -94 -157 -114 -207 -30 -25 44 -18 97 20 137 26 27 39 33 74 33 26 0
53 -8 71 -20z"/>
<path d="M5273 999 c-18 -3 -48 -18 -67 -33 -43 -32 -44 -32 -38 -1 l4 25 -91
0 -91 0 0 -379 0 -379 88 2 87 1 2 120 c1 66 2 132 2 147 l1 27 36 -24 c90
-61 218 -41 298 45 122 133 81 361 -79 431 -48 20 -108 28 -152 18z m56 -163
c57 -30 75 -88 46 -151 -49 -102 -205 -65 -208 49 -2 88 84 142 162 102z"/>
</g>
</svg>
