<?xml version="1.0" standalone="no"?>
<!DOCTYPE svg PUBLIC "-//W3C//DTD SVG 20010904//EN"
 "http://www.w3.org/TR/2001/REC-SVG-20010904/DTD/svg10.dtd">
<svg version="1.0" xmlns="http://www.w3.org/2000/svg"
 width="700.000000pt" height="700.000000pt" viewBox="0 0 700.000000 700.000000"
 preserveAspectRatio="xMidYMid meet">
<metadata>
Created by potrace 1.11, written by Peter Selinger 2001-2013
</metadata>
<g transform="translate(0.000000,700.000000) scale(0.100000,-0.100000)"
fill="#000000" stroke="none">
<path d="M0 3500 l0 -3500 3499 0 3500 0 -1 3500 0 3500 -3499 0 -3499 0 0
-3500z m6830 3329 c4 -6 5 -6641 1 -6659 0 -3 -1500 -5 -3331 -5 -2956 0
-3331 2 -3334 15 -4 14 -1 6655 2 6655 43 5 6659 -1 6662 -6z"/>
<path d="M3082 4992 c-227 -339 -412 -622 -412 -627 0 -11 1646 -12 1656 -2 6
6 -817 1246 -827 1247 -3 0 -191 -278 -417 -618z"/>
<path d="M1643 2863 c-538 -807 -976 -1470 -973 -1473 10 -10 1509 -6 1503 5
-4 5 -37 58 -74 116 l-69 105 -469 0 c-337 -1 -467 2 -463 10 64 105 1525
2283 1530 2280 4 -2 385 -571 846 -1263 l839 -1259 1013 0 c698 0 1011 3 1007
11 -48 85 -1958 2934 -1964 2928 -4 -4 -199 -296 -434 -648 -234 -352 -429
-641 -433 -643 -4 -1 -202 290 -441 648 -238 357 -435 650 -436 650 -2 0 -444
-660 -982 -1467z"/>
</g>
</svg>
